<svg width="180" height="180" viewBox="0 0 180 180" fill="none" xmlns="http://www.w3.org/2000/svg">
  <rect width="180" height="180" rx="36" fill="#C41E3A"/>
  <!-- Fork (left) -->
  <g fill="white">
    <rect x="57" y="38" width="4" height="28" rx="2"/>
    <rect x="64" y="38" width="4" height="28" rx="2"/>
    <rect x="71" y="38" width="4" height="28" rx="2"/>
    <path d="M57 64 Q66 72 66 78 L66 142 Q66 146 62 146 Q58 146 58 142 L58 78 Q58 72 57 64Z" fill="white"/>
  </g>
  <!-- Knife (right) -->
  <g fill="white">
    <path d="M111 38 Q123 50 123 70 L119 70 L119 142 Q119 146 115 146 Q111 146 111 142 Z" fill="white"/>
  </g>
  <!-- "F" initial centered below -->
  <text x="90" y="100" text-anchor="middle" font-family="Arial Black, sans-serif" font-size="52" font-weight="900" fill="white" opacity="0.15">F</text>
</svg>
